<svg id="svg" version="1.1" xmlns="http://www.w3.org/2000/svg" xmlns:xlink="http://www.w3.org/1999/xlink" width="400" height="400" viewBox="0, 0, 400,400"><g id="svgg"><path id="path0" d="M162.430 89.021 C 161.017 89.327,159.757 89.738,159.630 89.933 C 159.504 90.129,158.860 90.566,158.200 90.906 C 155.610 92.240,148.204 99.173,140.600 107.382 C 134.524 113.941,133.450 115.129,132.000 116.893 C 131.230 117.830,129.761 119.498,128.735 120.598 C 127.709 121.699,126.299 123.271,125.602 124.090 C 124.044 125.922,122.477 126.395,117.962 126.398 C 113.130 126.401,113.015 126.247,112.950 119.690 C 112.884 113.003,114.133 113.564,99.616 113.694 L 87.800 113.800 87.600 119.287 C 87.329 126.731,88.204 126.151,76.876 126.400 C 68.205 126.591,67.727 126.642,66.636 127.500 C 66.007 127.995,65.184 128.400,64.807 128.400 C 64.431 128.400,63.707 128.760,63.200 129.200 C 62.693 129.640,62.058 130.000,61.790 130.000 C 60.967 130.000,56.420 134.431,55.041 136.576 C 54.325 137.689,53.393 139.140,52.970 139.800 C 52.272 140.888,51.940 141.990,50.799 147.000 C 50.319 149.111,50.315 286.469,50.796 288.600 C 52.085 294.318,52.362 295.331,52.703 295.553 C 52.913 295.689,53.304 296.475,53.573 297.300 C 53.842 298.125,54.206 298.800,54.382 298.800 C 54.559 298.800,54.943 299.379,55.236 300.086 C 55.887 301.659,60.818 306.605,62.544 307.416 C 63.235 307.741,64.700 308.533,65.800 309.177 C 66.900 309.821,67.980 310.427,68.200 310.524 C 70.475 311.527,79.468 311.600,201.307 311.592 C 337.246 311.584,332.889 311.647,335.427 309.650 C 336.021 309.183,336.663 308.800,336.853 308.800 C 339.864 308.800,348.379 297.252,348.406 293.133 C 348.409 292.620,348.671 291.480,348.988 290.600 C 349.855 288.193,349.855 147.407,348.988 145.000 C 348.671 144.120,348.409 142.995,348.406 142.501 C 348.382 138.858,343.154 131.784,338.593 129.221 C 337.277 128.481,335.866 127.589,335.458 127.238 C 334.800 126.672,331.543 126.575,306.458 126.382 C 290.916 126.262,278.169 126.127,278.130 126.082 C 278.092 126.037,276.052 123.795,273.596 121.100 C 271.141 118.405,268.202 115.153,267.066 113.872 C 263.829 110.225,258.172 104.146,253.971 99.800 C 247.274 92.873,242.383 89.490,238.123 88.839 C 233.510 88.135,165.766 88.297,162.430 89.021 M236.909 100.000 C 237.469 100.440,238.114 100.800,238.343 100.800 C 238.846 100.800,246.103 108.051,249.421 111.868 C 250.727 113.371,252.022 114.838,252.298 115.129 C 252.574 115.419,252.800 115.830,252.800 116.041 C 252.800 116.252,253.656 117.274,254.703 118.312 C 255.749 119.351,257.684 121.450,259.003 122.978 C 260.321 124.505,262.300 126.780,263.400 128.032 C 264.500 129.284,265.760 130.745,266.200 131.277 C 268.469 134.023,269.083 134.643,270.000 135.116 C 270.550 135.400,271.450 135.892,272.000 136.210 C 272.846 136.699,277.332 136.789,301.137 136.794 C 328.664 136.800,329.296 136.817,330.291 137.600 C 330.850 138.040,331.643 138.400,332.053 138.400 C 333.236 138.400,335.808 141.010,337.056 143.475 L 338.200 145.737 338.200 217.968 L 338.200 290.200 337.300 292.078 C 336.805 293.111,336.399 294.101,336.398 294.278 C 336.394 295.113,332.752 298.470,330.659 299.570 L 328.319 300.800 201.148 300.800 L 73.977 300.800 71.089 299.423 C 67.591 297.756,64.553 294.771,63.052 291.525 L 62.000 289.250 62.006 217.725 C 62.011 156.155,62.092 146.061,62.589 145.200 C 62.906 144.650,63.333 143.840,63.538 143.400 C 64.222 141.930,68.081 138.786,69.629 138.438 C 70.447 138.254,71.535 137.810,72.047 137.452 C 72.886 136.864,75.752 136.800,101.058 136.800 L 129.139 136.800 130.269 135.855 C 130.891 135.335,131.805 134.783,132.300 134.628 C 132.795 134.473,133.200 134.148,133.200 133.907 C 133.200 133.665,133.472 133.182,133.804 132.834 C 134.136 132.485,136.137 130.040,138.250 127.400 C 140.363 124.760,142.339 122.330,142.642 122.000 C 143.529 121.033,146.410 117.859,149.064 114.924 C 154.298 109.136,161.968 101.621,163.840 100.446 L 165.800 99.215 200.846 99.208 C 235.292 99.200,235.910 99.214,236.909 100.000 M195.600 149.195 C 194.610 149.385,192.676 149.554,191.302 149.570 C 189.927 149.587,187.767 149.947,186.502 150.371 C 185.236 150.796,183.212 151.269,182.004 151.422 C 180.796 151.576,179.179 152.038,178.411 152.450 C 177.643 152.862,176.426 153.309,175.707 153.444 C 174.988 153.579,174.400 153.837,174.400 154.018 C 174.400 154.198,173.995 154.463,173.500 154.606 C 172.650 154.851,168.714 156.591,167.759 157.145 C 165.682 158.347,161.980 160.905,160.298 162.300 C 159.170 163.235,158.085 164.000,157.886 164.000 C 157.415 164.000,148.000 173.531,148.000 174.007 C 148.000 174.206,147.190 175.363,146.200 176.579 C 145.210 177.794,144.400 178.999,144.400 179.257 C 144.400 179.514,143.950 180.314,143.400 181.036 C 142.850 181.757,142.400 182.593,142.400 182.893 C 142.400 183.194,142.232 183.611,142.027 183.820 C 141.320 184.540,139.278 188.734,138.986 190.066 C 138.825 190.800,138.357 192.027,137.947 192.794 C 137.536 193.561,137.200 194.572,137.200 195.040 C 137.200 195.509,136.840 196.350,136.400 196.909 C 135.917 197.523,135.599 198.535,135.598 199.463 C 135.596 200.308,135.325 202.796,134.994 204.992 C 134.053 211.230,133.854 216.227,134.386 220.200 C 134.651 222.180,135.088 225.610,135.357 227.823 C 135.653 230.251,136.115 232.229,136.523 232.812 C 136.896 233.343,137.200 234.238,137.200 234.800 C 137.200 235.362,137.452 236.182,137.761 236.623 C 138.069 237.063,138.526 238.228,138.777 239.212 C 139.246 241.056,141.133 245.235,141.667 245.614 C 141.833 245.732,142.236 246.466,142.561 247.246 C 142.887 248.026,143.434 248.896,143.777 249.181 C 144.120 249.465,144.400 249.914,144.400 250.179 C 144.400 250.700,147.001 254.219,149.709 257.363 C 150.639 258.443,151.490 259.523,151.600 259.763 C 151.970 260.573,160.825 268.400,161.371 268.400 C 161.650 268.400,163.679 269.762,165.000 270.836 C 165.844 271.522,168.218 272.769,172.200 274.617 C 173.520 275.230,174.870 275.883,175.200 276.068 C 176.606 276.858,182.696 278.679,185.000 278.999 C 186.100 279.151,187.630 279.558,188.400 279.903 C 190.573 280.875,209.056 280.872,211.600 279.899 C 212.590 279.520,214.595 279.027,216.055 278.804 C 217.516 278.581,219.226 278.130,219.855 277.802 C 220.485 277.474,221.360 277.203,221.800 277.201 C 222.240 277.200,224.171 276.409,226.092 275.445 C 228.012 274.480,229.992 273.588,230.492 273.463 C 230.991 273.337,232.619 272.417,234.109 271.417 C 235.600 270.418,236.995 269.600,237.209 269.600 C 237.424 269.600,237.600 269.414,237.600 269.187 C 237.600 268.961,237.915 268.660,238.300 268.520 C 238.685 268.379,240.014 267.395,241.254 266.332 C 242.494 265.270,243.599 264.400,243.709 264.400 C 244.225 264.400,252.400 255.502,252.400 254.940 C 252.400 254.729,253.043 253.854,253.829 252.996 C 254.615 252.139,255.521 250.888,255.843 250.218 C 256.165 249.548,256.869 248.280,257.408 247.400 C 257.947 246.520,258.749 245.080,259.189 244.200 C 259.630 243.320,260.157 242.330,260.361 242.000 C 260.772 241.335,262.214 237.045,262.824 234.674 C 263.039 233.835,263.465 232.755,263.770 232.274 C 264.075 231.793,264.446 230.230,264.595 228.800 C 264.745 227.370,265.122 224.691,265.433 222.848 C 266.155 218.579,266.154 212.070,265.431 207.200 C 265.121 205.110,264.741 202.140,264.587 200.600 C 264.432 199.060,264.074 197.530,263.790 197.200 C 263.507 196.870,263.060 195.790,262.798 194.800 C 262.536 193.810,262.185 192.820,262.019 192.600 C 261.852 192.380,261.496 191.302,261.228 190.205 C 260.960 189.108,260.599 188.028,260.425 187.805 C 260.150 187.452,258.090 183.703,255.990 179.732 C 255.621 179.034,254.572 177.526,253.659 176.379 C 252.747 175.233,252.000 174.111,252.000 173.886 C 252.000 173.661,251.280 172.860,250.400 172.107 C 249.520 171.354,248.800 170.502,248.800 170.215 C 248.800 169.927,248.372 169.412,247.849 169.069 C 247.326 168.726,245.898 167.445,244.675 166.223 C 243.452 165.000,242.325 164.000,242.169 164.000 C 242.014 164.000,240.967 163.232,239.843 162.293 C 238.719 161.354,237.305 160.333,236.700 160.025 C 236.095 159.717,235.600 159.315,235.600 159.132 C 235.600 158.950,235.344 158.800,235.031 158.800 C 234.718 158.800,233.927 158.350,233.273 157.800 C 232.619 157.250,231.862 156.800,231.589 156.800 C 231.317 156.800,230.533 156.462,229.847 156.049 C 229.161 155.635,227.925 155.081,227.100 154.817 C 226.275 154.554,225.600 154.194,225.600 154.019 C 225.600 153.844,225.033 153.587,224.340 153.448 C 223.647 153.309,222.342 152.847,221.440 152.421 C 220.538 151.994,218.553 151.444,217.029 151.198 C 215.504 150.953,213.896 150.559,213.455 150.322 C 211.942 149.512,198.403 148.658,195.600 149.195 M276.277 151.456 C 276.125 151.608,276.000 154.223,276.000 157.267 L 276.000 162.800 281.592 162.800 C 288.218 162.800,287.689 163.389,287.516 156.200 L 287.400 151.400 281.977 151.289 C 278.995 151.228,276.430 151.303,276.277 151.456 M205.400 160.007 C 209.935 160.444,214.246 161.370,216.600 162.413 C 217.480 162.803,218.790 163.245,219.511 163.395 C 221.130 163.733,226.697 166.563,227.823 167.622 C 228.279 168.050,228.963 168.400,229.344 168.400 C 229.725 168.400,230.454 168.805,230.965 169.300 C 231.476 169.795,232.160 170.380,232.487 170.600 C 232.813 170.820,233.782 171.474,234.640 172.053 C 236.181 173.092,241.449 178.439,243.000 180.537 C 243.440 181.132,244.113 182.020,244.496 182.509 C 247.086 185.821,247.600 186.564,247.600 187.001 C 247.600 187.271,247.960 187.950,248.400 188.509 C 248.840 189.069,249.200 189.868,249.200 190.285 C 249.200 190.703,249.650 191.655,250.200 192.400 C 250.750 193.145,251.200 194.040,251.200 194.389 C 251.200 194.737,251.460 195.393,251.777 195.846 C 252.094 196.299,252.554 197.914,252.798 199.435 C 253.043 200.956,253.548 202.740,253.921 203.400 C 254.980 205.273,254.935 224.360,253.867 226.400 C 253.464 227.170,252.977 228.872,252.786 230.182 C 252.594 231.492,252.138 233.202,251.771 233.982 C 251.405 234.762,250.651 236.390,250.096 237.600 C 249.542 238.810,248.930 240.070,248.736 240.400 C 248.542 240.730,248.101 241.619,247.755 242.375 C 247.215 243.557,245.458 246.178,244.790 246.800 C 244.671 246.910,244.006 247.785,243.312 248.745 C 242.618 249.705,241.679 250.750,241.225 251.068 C 240.771 251.385,240.400 251.809,240.400 252.009 C 240.400 253.069,230.474 261.294,228.640 261.754 C 228.068 261.898,227.600 262.181,227.600 262.383 C 227.600 262.854,222.995 265.069,221.328 265.399 C 220.628 265.538,219.856 265.891,219.613 266.184 C 219.370 266.477,218.503 266.838,217.686 266.988 C 216.869 267.137,215.809 267.511,215.332 267.818 C 211.455 270.313,188.591 270.305,184.637 267.807 C 184.177 267.516,183.170 267.151,182.400 266.995 C 181.630 266.839,180.730 266.475,180.400 266.186 C 180.070 265.897,178.950 265.447,177.912 265.186 C 176.874 264.925,175.817 264.461,175.563 264.156 C 175.310 263.850,174.786 263.600,174.400 263.600 C 174.014 263.600,173.451 263.302,173.149 262.938 C 172.847 262.574,171.986 262.020,171.236 261.706 C 167.125 259.988,157.329 250.322,153.696 244.400 C 152.019 241.667,151.757 241.192,150.492 238.600 C 148.102 233.703,147.542 232.221,147.331 230.235 C 147.212 229.116,146.735 227.390,146.272 226.400 C 144.990 223.659,144.967 205.856,146.243 203.400 C 146.700 202.520,147.194 200.760,147.342 199.490 C 147.489 198.219,147.967 196.512,148.405 195.696 C 148.842 194.880,149.200 193.922,149.200 193.568 C 149.200 193.214,149.542 192.614,149.960 192.236 C 150.379 191.857,150.833 190.948,150.971 190.214 C 151.109 189.481,151.486 188.660,151.811 188.391 C 152.135 188.122,152.400 187.668,152.400 187.382 C 152.400 187.096,152.850 186.327,153.400 185.673 C 153.950 185.019,154.400 184.356,154.400 184.200 C 154.400 183.933,154.722 183.497,157.497 180.015 C 159.347 177.693,164.128 172.940,165.400 172.157 C 166.060 171.751,166.744 171.190,166.920 170.910 C 167.096 170.629,167.494 170.400,167.806 170.400 C 168.117 170.400,168.553 170.061,168.775 169.646 C 168.997 169.231,169.679 168.767,170.289 168.615 C 170.900 168.462,171.716 168.053,172.103 167.704 C 173.693 166.271,180.042 163.202,181.426 163.197 C 181.852 163.196,182.740 162.837,183.400 162.400 C 184.060 161.963,185.089 161.604,185.686 161.603 C 186.283 161.601,187.575 161.327,188.557 160.994 C 191.964 159.837,199.231 159.411,205.400 160.007 M194.021 191.374 C 193.759 191.690,192.972 192.062,192.272 192.201 C 190.209 192.610,186.054 194.772,184.668 196.159 C 183.961 196.866,183.067 197.565,182.682 197.713 C 182.297 197.861,181.863 198.301,181.718 198.691 C 181.573 199.081,180.793 200.303,179.984 201.406 C 179.175 202.509,178.379 203.859,178.215 204.406 C 178.051 204.953,177.620 205.850,177.258 206.400 C 176.118 208.132,176.311 221.664,177.507 223.785 C 177.998 224.656,178.400 225.682,178.400 226.065 C 178.400 226.447,178.644 226.904,178.942 227.080 C 179.239 227.256,179.707 227.827,179.981 228.348 C 180.487 229.310,182.171 231.355,183.119 232.160 C 183.405 232.402,183.947 232.903,184.324 233.273 C 185.387 234.317,187.817 235.889,188.859 236.207 C 189.376 236.365,190.070 236.716,190.400 236.986 C 190.730 237.257,191.900 237.714,193.000 238.001 C 194.100 238.289,195.486 238.767,196.080 239.062 C 199.075 240.553,209.694 238.156,213.360 235.160 C 213.602 234.962,214.664 234.108,215.720 233.261 C 217.830 231.568,221.314 227.173,221.791 225.600 C 221.959 225.050,222.475 223.790,222.940 222.800 C 224.249 220.009,224.221 208.878,222.900 206.753 C 222.405 205.957,222.000 204.935,222.000 204.481 C 222.000 204.028,221.704 203.361,221.342 203.000 C 220.415 202.072,218.789 199.624,218.372 198.526 C 218.178 198.017,217.774 197.600,217.474 197.600 C 217.173 197.600,216.218 196.905,215.351 196.055 C 214.484 195.205,213.330 194.373,212.787 194.207 C 212.244 194.041,211.530 193.678,211.200 193.399 C 210.870 193.121,209.574 192.600,208.320 192.241 C 207.067 191.883,205.931 191.412,205.797 191.195 C 205.382 190.523,194.591 190.688,194.021 191.374 " stroke="none" fill="#0a0a0a" fill-rule="evenodd"></path><path id="path1" d="M0.000 200.000 L 0.000 400.000 200.000 400.000 L 400.000 400.000 400.000 200.000 L 400.000 0.000 200.000 0.000 L 0.000 0.000 0.000 200.000 M240.109 87.600 C 240.669 88.040,241.458 88.401,241.863 88.403 C 244.460 88.412,256.283 99.150,265.203 109.600 C 265.672 110.150,266.809 111.432,267.728 112.449 C 268.648 113.466,270.480 115.512,271.800 116.995 C 273.120 118.479,275.208 120.752,276.439 122.046 L 278.678 124.400 305.063 124.400 C 327.642 124.400,331.559 124.485,332.224 124.987 C 332.651 125.310,333.450 125.581,334.000 125.589 C 336.696 125.627,343.608 130.397,345.834 133.756 C 347.523 136.303,349.177 139.440,349.188 140.114 C 349.195 140.507,349.515 141.309,349.900 141.896 C 350.560 142.904,350.600 147.201,350.600 217.782 C 350.600 288.283,350.560 292.674,349.900 293.880 C 349.515 294.584,349.191 295.484,349.181 295.880 C 349.170 296.276,348.820 297.230,348.403 298.000 C 347.985 298.770,347.471 299.772,347.260 300.226 C 345.376 304.282,337.312 311.590,334.706 311.602 C 334.428 311.604,333.660 311.919,333.000 312.302 C 331.494 313.178,71.025 313.412,69.961 312.539 C 69.653 312.286,68.630 311.872,67.688 311.621 C 66.747 311.369,65.127 310.637,64.088 309.995 C 63.050 309.353,61.669 308.528,61.021 308.162 C 59.548 307.332,54.400 302.006,54.400 301.312 C 54.400 301.031,54.214 300.800,53.987 300.800 C 53.761 300.800,53.461 300.485,53.322 300.100 C 53.183 299.715,52.764 298.950,52.391 298.400 C 51.086 296.476,49.902 292.570,49.542 289.000 C 48.824 281.877,49.301 143.915,50.048 142.776 C 50.404 142.233,50.818 141.228,50.968 140.543 C 51.119 139.859,51.682 138.701,52.221 137.972 C 52.759 137.242,53.200 136.480,53.200 136.279 C 53.200 134.022,63.381 126.528,67.495 125.756 C 68.282 125.608,69.392 125.244,69.963 124.946 C 70.714 124.554,72.854 124.404,77.726 124.402 C 86.483 124.399,85.999 124.722,86.005 118.886 C 86.015 110.991,84.923 111.519,100.917 111.678 C 115.561 111.824,114.139 111.102,114.400 118.520 L 114.600 124.200 118.858 124.313 L 123.115 124.426 124.558 123.066 C 125.351 122.318,126.000 121.578,126.000 121.421 C 126.000 121.265,126.765 120.352,127.700 119.392 C 128.635 118.433,129.850 117.136,130.400 116.509 C 143.909 101.125,156.408 88.890,158.718 88.787 C 158.873 88.781,159.900 88.332,161.000 87.791 L 163.000 86.807 201.046 86.804 C 238.489 86.800,239.108 86.813,240.109 87.600 M166.196 100.806 C 166.058 101.029,165.350 101.461,164.623 101.765 C 163.455 102.253,156.027 109.383,152.085 113.800 C 148.627 117.675,144.535 122.199,143.800 122.961 C 142.768 124.031,139.234 128.341,138.200 129.792 C 137.760 130.410,136.995 131.282,136.500 131.730 C 136.005 132.178,135.600 132.768,135.600 133.041 C 135.600 133.816,131.425 137.191,129.939 137.617 C 129.153 137.843,118.106 138.000,103.034 138.000 C 71.338 138.000,70.909 138.053,66.303 142.526 C 65.491 143.314,64.371 145.043,63.814 146.368 L 62.800 148.776 62.810 217.288 C 62.815 257.665,62.970 286.375,63.187 287.200 C 64.791 293.304,68.048 296.930,73.610 298.803 C 76.275 299.701,327.242 300.103,327.793 299.211 C 327.926 298.997,328.730 298.634,329.581 298.405 C 332.185 297.704,334.796 294.706,335.828 291.231 C 336.154 290.133,336.596 289.126,336.810 288.994 C 337.704 288.441,337.301 147.385,336.401 145.910 C 335.962 145.189,335.602 144.311,335.601 143.957 C 335.601 143.604,334.699 142.413,333.597 141.311 C 330.319 138.033,329.973 137.999,299.556 138.000 C 267.073 138.000,271.010 138.888,262.890 129.729 C 261.949 128.668,260.599 127.151,259.890 126.358 C 259.180 125.566,257.880 124.056,257.000 123.003 C 256.120 121.951,255.040 120.700,254.600 120.224 C 254.160 119.747,252.992 118.377,252.004 117.179 C 251.016 115.980,249.756 114.536,249.204 113.969 C 248.652 113.402,247.300 111.881,246.200 110.588 C 243.355 107.244,238.894 102.924,236.880 101.563 L 235.160 100.400 200.804 100.400 C 177.989 100.400,166.363 100.536,166.196 100.806 M210.128 147.972 C 210.748 148.208,212.548 148.597,214.128 148.835 C 215.708 149.074,217.529 149.527,218.177 149.842 C 218.824 150.157,220.084 150.525,220.977 150.658 C 221.869 150.792,223.140 151.216,223.800 151.600 C 224.460 151.983,225.540 152.424,226.200 152.580 C 226.860 152.735,227.670 153.096,228.000 153.381 C 228.330 153.666,229.275 154.116,230.100 154.380 C 230.925 154.645,231.600 155.004,231.600 155.177 C 231.600 155.350,232.410 155.801,233.400 156.179 C 234.390 156.557,235.200 157.031,235.200 157.233 C 235.200 157.435,235.399 157.600,235.642 157.600 C 235.885 157.600,236.619 158.050,237.273 158.600 C 237.927 159.150,238.673 159.602,238.931 159.605 C 239.189 159.608,240.173 160.328,241.117 161.205 C 242.062 162.082,242.962 162.800,243.117 162.800 C 243.534 162.799,253.200 172.801,253.200 173.232 C 253.200 173.435,253.481 173.915,253.825 174.300 C 255.292 175.942,256.800 178.150,256.800 178.655 C 256.800 178.955,256.979 179.200,257.197 179.200 C 257.415 179.200,257.910 179.815,258.297 180.566 C 261.624 187.029,263.600 191.425,263.600 192.359 C 263.600 192.724,263.842 193.377,264.138 193.811 C 264.755 194.717,265.600 197.897,265.600 199.316 C 265.600 199.844,265.856 200.800,266.168 201.439 C 267.757 204.687,267.808 225.719,266.233 228.200 C 265.953 228.640,265.602 230.066,265.451 231.368 C 265.300 232.671,264.822 234.539,264.388 235.519 C 263.955 236.500,263.599 237.594,263.599 237.951 C 263.598 238.308,263.268 239.140,262.866 239.800 C 262.464 240.460,262.001 241.540,261.837 242.200 C 261.672 242.860,261.311 243.670,261.035 244.000 C 260.758 244.330,260.284 245.230,259.981 246.000 C 259.678 246.770,259.285 247.580,259.107 247.800 C 258.135 249.008,256.414 251.867,256.407 252.286 C 256.403 252.553,256.040 252.965,255.600 253.200 C 255.160 253.435,254.800 253.800,254.800 254.011 C 254.800 254.847,250.790 259.620,247.200 263.056 C 245.990 264.214,244.622 265.529,244.159 265.979 C 242.932 267.173,238.020 270.800,237.631 270.800 C 237.448 270.800,237.051 271.098,236.749 271.462 C 236.447 271.826,235.660 272.382,235.000 272.697 C 233.288 273.514,231.294 274.627,230.705 275.095 C 230.427 275.315,229.539 275.708,228.732 275.968 C 227.925 276.228,227.048 276.702,226.783 277.020 C 226.518 277.339,225.968 277.600,225.559 277.600 C 225.150 277.600,223.687 278.031,222.308 278.557 C 217.494 280.395,213.942 281.257,209.487 281.669 C 200.116 282.535,187.891 281.946,183.437 280.413 C 182.138 279.966,180.781 279.600,180.422 279.600 C 180.063 279.600,179.102 279.260,178.286 278.844 C 177.470 278.428,176.306 277.970,175.701 277.827 C 171.909 276.933,160.569 270.196,156.400 266.362 C 149.682 260.183,147.073 257.166,143.099 250.977 C 142.385 249.864,141.573 248.604,141.295 248.177 C 141.017 247.749,140.447 246.655,140.028 245.744 C 139.609 244.833,139.087 243.977,138.868 243.842 C 138.649 243.707,138.348 242.877,138.200 241.998 C 138.051 241.119,137.773 240.400,137.581 240.400 C 137.389 240.400,137.024 239.635,136.770 238.700 C 136.517 237.765,135.991 236.190,135.602 235.200 C 135.213 234.210,134.773 232.500,134.625 231.400 C 134.477 230.300,134.115 228.860,133.822 228.200 C 132.439 225.089,132.406 205.832,133.776 201.800 C 134.075 200.920,134.532 199.030,134.791 197.600 C 135.050 196.170,135.518 194.601,135.831 194.114 C 136.144 193.627,136.400 192.929,136.400 192.564 C 136.400 191.086,140.605 182.313,142.805 179.200 C 143.038 178.870,143.448 178.219,143.715 177.753 C 144.674 176.079,145.799 174.591,146.493 174.077 C 146.882 173.790,147.200 173.361,147.200 173.124 C 147.200 172.887,147.818 172.042,148.574 171.247 C 153.648 165.902,154.839 164.732,156.832 163.130 C 158.059 162.144,159.426 160.991,159.869 160.568 C 160.312 160.146,161.198 159.490,161.837 159.111 C 163.588 158.075,164.508 157.453,165.111 156.901 C 165.411 156.626,166.138 156.287,166.728 156.148 C 167.318 156.009,168.160 155.572,168.600 155.177 C 169.040 154.782,169.888 154.338,170.484 154.190 C 171.080 154.043,171.773 153.674,172.024 153.371 C 172.275 153.069,173.127 152.700,173.917 152.552 C 174.708 152.403,175.905 151.968,176.577 151.585 C 177.250 151.202,178.457 150.774,179.260 150.634 C 180.063 150.494,181.233 150.129,181.860 149.824 C 182.487 149.519,184.331 149.068,185.959 148.822 C 187.586 148.576,189.108 148.257,189.341 148.113 C 190.805 147.208,207.816 147.093,210.128 147.972 M288.148 149.805 C 289.387 151.044,289.608 161.945,288.422 163.373 C 287.888 164.017,276.952 164.340,275.433 163.757 C 274.467 163.387,274.493 151.002,275.462 149.931 C 276.369 148.929,287.164 148.821,288.148 149.805 M191.304 162.200 C 187.554 162.711,180.991 164.568,180.578 165.235 C 180.454 165.436,180.018 165.600,179.608 165.600 C 178.965 165.600,176.857 166.611,172.004 169.246 C 171.350 169.601,170.016 170.546,169.040 171.346 C 168.064 172.146,167.122 172.800,166.947 172.800 C 166.772 172.800,166.262 173.161,165.814 173.603 C 165.366 174.045,163.920 175.452,162.600 176.730 C 159.847 179.394,157.586 181.993,156.295 183.974 C 155.803 184.730,155.091 185.810,154.713 186.374 C 154.335 186.938,153.743 188.023,153.397 188.785 C 153.052 189.547,152.531 190.447,152.238 190.785 C 151.946 191.123,151.579 191.940,151.423 192.600 C 151.266 193.260,150.904 194.070,150.620 194.400 C 150.335 194.730,149.975 195.720,149.821 196.600 C 149.667 197.480,149.284 198.599,148.970 199.087 C 148.656 199.574,148.196 201.374,147.947 203.087 C 147.699 204.799,147.294 206.453,147.048 206.761 C 146.283 207.720,146.201 219.509,146.940 222.057 C 147.283 223.236,147.771 225.541,148.025 227.180 C 148.279 228.819,148.719 230.529,149.004 230.980 C 149.289 231.431,149.649 232.430,149.804 233.200 C 149.959 233.970,150.427 235.161,150.843 235.847 C 151.259 236.533,151.600 237.364,151.600 237.693 C 151.600 238.023,151.949 238.736,152.375 239.278 C 152.802 239.820,153.271 240.744,153.419 241.332 C 153.566 241.919,153.824 242.400,153.992 242.400 C 154.160 242.400,154.906 243.391,155.649 244.602 C 156.392 245.814,157.766 247.659,158.701 248.702 C 159.637 249.746,160.504 250.915,160.628 251.300 C 160.752 251.685,161.006 252.000,161.191 252.000 C 161.376 252.000,162.579 253.014,163.864 254.252 C 165.149 255.491,166.830 256.931,167.600 257.452 C 168.370 257.972,169.720 258.888,170.600 259.486 C 172.892 261.045,174.368 261.902,176.256 262.771 C 177.167 263.191,178.032 263.729,178.180 263.967 C 178.327 264.205,178.849 264.400,179.339 264.400 C 179.830 264.400,180.886 264.734,181.687 265.142 C 182.488 265.551,184.281 266.104,185.672 266.372 C 187.062 266.640,189.010 267.142,190.000 267.489 C 192.570 268.389,207.942 268.422,210.000 267.532 C 210.770 267.199,212.660 266.691,214.200 266.404 C 215.740 266.117,217.627 265.548,218.394 265.141 C 219.161 264.733,220.185 264.400,220.670 264.400 C 221.156 264.400,221.655 264.235,221.779 264.034 C 221.904 263.832,223.534 262.895,225.403 261.952 C 227.271 261.009,228.800 260.116,228.800 259.967 C 228.800 259.819,229.340 259.473,230.000 259.200 C 230.660 258.927,231.200 258.549,231.200 258.362 C 231.200 258.174,231.695 257.763,232.300 257.447 C 232.905 257.132,234.195 256.138,235.167 255.237 C 236.138 254.337,236.974 253.600,237.024 253.600 C 237.297 253.600,239.601 251.226,239.607 250.940 C 239.610 250.753,240.328 249.895,241.202 249.034 C 242.076 248.173,243.017 246.958,243.293 246.334 C 243.569 245.710,243.914 245.200,244.058 245.200 C 244.346 245.200,245.748 243.007,246.870 240.800 C 247.262 240.030,247.750 239.130,247.954 238.800 C 248.568 237.807,250.400 233.335,250.400 232.828 C 250.400 232.568,250.738 231.601,251.152 230.678 C 251.565 229.755,252.033 227.920,252.191 226.600 C 252.349 225.280,252.730 223.593,253.039 222.851 C 253.842 220.920,253.834 208.412,253.028 206.855 C 252.714 206.247,252.336 204.591,252.188 203.175 C 252.040 201.759,251.600 199.962,251.209 199.182 C 250.818 198.401,250.372 197.017,250.218 196.105 C 250.064 195.192,249.686 194.238,249.379 193.983 C 249.072 193.728,248.706 192.905,248.565 192.154 C 248.424 191.403,248.104 190.656,247.854 190.494 C 247.604 190.332,247.086 189.570,246.702 188.800 C 245.824 187.036,245.235 186.102,244.100 184.672 C 243.605 184.049,243.200 183.349,243.200 183.117 C 243.200 182.265,233.802 172.800,232.956 172.800 C 232.650 172.800,232.400 172.650,232.400 172.466 C 232.400 172.177,229.877 170.381,227.400 168.909 C 226.434 168.335,221.073 165.716,219.400 165.001 C 212.406 162.010,201.023 160.875,191.304 162.200 M209.132 190.827 C 210.818 191.503,212.482 192.313,212.830 192.627 C 213.178 192.942,213.659 193.200,213.898 193.200 C 214.522 193.200,218.154 196.450,219.997 198.658 C 222.036 201.102,224.237 205.298,224.633 207.495 C 224.782 208.323,225.037 209.180,225.199 209.400 C 227.144 212.038,224.454 226.929,221.745 228.520 C 221.445 228.696,221.200 229.081,221.200 229.376 C 221.200 230.263,215.263 236.013,213.470 236.863 C 212.551 237.298,211.350 237.900,210.800 238.200 C 206.410 240.599,196.365 241.411,192.884 239.649 C 192.068 239.236,190.817 238.772,190.105 238.618 C 189.392 238.464,188.705 238.170,188.577 237.963 C 188.450 237.757,187.753 237.340,187.028 237.038 C 183.621 235.614,178.870 230.272,176.500 225.200 C 173.585 218.962,173.752 209.590,176.885 203.600 C 178.409 200.686,179.653 198.800,180.049 198.800 C 180.253 198.800,180.591 198.350,180.800 197.800 C 181.009 197.250,181.356 196.800,181.571 196.800 C 181.786 196.800,182.591 196.152,183.361 195.359 C 188.660 189.902,201.280 187.683,209.132 190.827 " stroke="none" fill="#fbfbfb" fill-rule="evenodd"></path><path id="path2" d="M162.326 88.388 C 158.246 89.670,154.187 92.645,147.717 99.095 C 143.404 103.395,127.950 120.255,124.939 123.945 C 124.119 124.950,123.858 125.009,119.409 125.200 C 113.425 125.456,113.600 125.628,113.600 119.495 C 113.600 116.941,113.424 114.390,113.210 113.826 L 112.820 112.800 100.253 112.800 C 85.559 112.800,87.083 112.092,87.177 118.879 C 87.266 125.286,87.361 125.199,80.300 125.202 C 68.936 125.205,63.198 127.163,57.322 133.042 C 55.519 134.846,53.774 136.924,53.444 137.661 C 53.114 138.397,52.575 139.450,52.246 140.000 C 50.094 143.599,50.200 139.540,50.200 218.000 L 50.200 290.200 51.061 292.800 C 51.909 295.362,53.211 298.064,54.913 300.792 C 55.999 302.534,60.321 306.906,61.688 307.646 C 66.501 310.251,68.610 311.161,71.200 311.752 C 75.811 312.804,328.952 312.578,332.446 311.519 C 340.361 309.120,346.856 301.826,349.144 292.766 L 350.011 289.332 349.899 216.766 L 349.788 144.200 348.922 141.800 C 346.488 135.054,343.605 131.453,338.076 128.251 C 333.206 125.431,333.972 125.498,304.539 125.314 L 278.078 125.149 275.738 122.674 C 274.451 121.314,272.408 119.042,271.199 117.627 C 269.990 116.212,268.460 114.489,267.800 113.797 C 267.140 113.105,265.341 111.113,263.803 109.370 C 262.264 107.626,259.157 104.296,256.897 101.969 C 254.638 99.642,252.567 97.471,252.295 97.145 C 249.966 94.351,242.784 89.416,239.600 88.422 C 235.802 87.236,166.087 87.205,162.326 88.388 M238.123 88.839 C 242.383 89.490,247.274 92.873,253.971 99.800 C 258.172 104.146,263.829 110.225,267.066 113.872 C 268.202 115.153,271.141 118.405,273.596 121.100 C 276.052 123.795,278.092 126.037,278.130 126.082 C 278.169 126.127,290.916 126.262,306.458 126.382 C 331.543 126.575,334.800 126.672,335.458 127.238 C 335.866 127.589,337.277 128.481,338.593 129.221 C 343.154 131.784,348.382 138.858,348.406 142.501 C 348.409 142.995,348.671 144.120,348.988 145.000 C 349.855 147.407,349.855 288.193,348.988 290.600 C 348.671 291.480,348.409 292.620,348.406 293.133 C 348.379 297.252,339.864 308.800,336.853 308.800 C 336.663 308.800,336.021 309.183,335.427 309.650 C 332.889 311.647,337.246 311.584,201.307 311.592 C 79.468 311.600,70.475 311.527,68.200 310.524 C 67.980 310.427,66.900 309.821,65.800 309.177 C 64.700 308.533,63.235 307.741,62.544 307.416 C 60.818 306.605,55.887 301.659,55.236 300.086 C 54.943 299.379,54.559 298.800,54.382 298.800 C 54.206 298.800,53.842 298.125,53.573 297.300 C 53.304 296.475,52.913 295.689,52.703 295.553 C 52.362 295.331,52.085 294.318,50.796 288.600 C 50.315 286.469,50.319 149.111,50.799 147.000 C 51.940 141.990,52.272 140.888,52.970 139.800 C 53.393 139.140,54.325 137.689,55.041 136.576 C 56.420 134.431,60.967 130.000,61.790 130.000 C 62.058 130.000,62.693 129.640,63.200 129.200 C 63.707 128.760,64.431 128.400,64.807 128.400 C 65.184 128.400,66.007 127.995,66.636 127.500 C 67.727 126.642,68.205 126.591,76.876 126.400 C 88.204 126.151,87.329 126.731,87.600 119.287 L 87.800 113.800 99.616 113.694 C 114.133 113.564,112.884 113.003,112.950 119.690 C 113.015 126.247,113.130 126.401,117.962 126.398 C 122.477 126.395,124.044 125.922,125.602 124.090 C 126.299 123.271,127.709 121.699,128.735 120.598 C 129.761 119.498,131.230 117.830,132.000 116.893 C 133.450 115.129,134.524 113.941,140.600 107.382 C 148.204 99.173,155.610 92.240,158.200 90.906 C 158.860 90.566,159.504 90.129,159.630 89.933 C 160.579 88.471,229.428 87.512,238.123 88.839 M163.840 100.446 C 161.968 101.621,154.298 109.136,149.064 114.924 C 146.410 117.859,143.529 121.033,142.642 122.000 C 142.339 122.330,140.363 124.760,138.250 127.400 C 136.137 130.040,134.136 132.485,133.804 132.834 C 133.472 133.182,133.200 133.665,133.200 133.907 C 133.200 134.148,132.795 134.473,132.300 134.628 C 131.805 134.783,130.891 135.335,130.269 135.855 L 129.139 136.800 101.058 136.800 C 75.752 136.800,72.886 136.864,72.047 137.452 C 71.535 137.810,70.447 138.254,69.629 138.438 C 68.081 138.786,64.222 141.930,63.538 143.400 C 63.333 143.840,62.906 144.650,62.589 145.200 C 62.092 146.061,62.011 156.155,62.006 217.725 L 62.000 289.250 63.052 291.525 C 64.553 294.771,67.591 297.756,71.089 299.423 L 73.977 300.800 201.148 300.800 L 328.319 300.800 330.659 299.570 C 332.752 298.470,336.394 295.113,336.398 294.278 C 336.399 294.101,336.805 293.111,337.300 292.078 L 338.200 290.200 338.200 217.968 L 338.200 145.737 337.056 143.475 C 335.808 141.010,333.236 138.400,332.053 138.400 C 331.643 138.400,330.850 138.040,330.291 137.600 C 329.296 136.817,328.664 136.800,301.137 136.794 C 277.332 136.789,272.846 136.699,272.000 136.210 C 271.450 135.892,270.550 135.400,270.000 135.116 C 269.083 134.643,268.469 134.023,266.200 131.277 C 265.760 130.745,264.500 129.284,263.400 128.032 C 262.300 126.780,260.321 124.505,259.003 122.978 C 257.684 121.450,255.749 119.351,254.703 118.312 C 253.656 117.274,252.800 116.252,252.800 116.041 C 252.800 115.830,252.574 115.419,252.298 115.129 C 252.022 114.838,250.727 113.371,249.421 111.868 C 246.103 108.051,238.846 100.800,238.343 100.800 C 238.114 100.800,237.469 100.440,236.909 100.000 C 235.910 99.214,235.292 99.200,200.846 99.208 L 165.800 99.215 163.840 100.446 M237.081 100.669 C 239.488 102.079,245.218 107.800,250.400 113.967 C 252.232 116.147,253.917 118.094,258.200 122.982 C 259.520 124.489,260.929 126.099,261.330 126.561 C 261.732 127.022,262.542 127.943,263.130 128.606 C 263.719 129.270,265.333 131.102,266.717 132.679 C 271.018 137.577,268.234 137.200,300.078 137.200 L 327.503 137.200 330.040 138.154 C 333.315 139.385,335.219 141.013,336.539 143.711 L 337.600 145.880 337.600 217.748 L 337.600 289.616 336.608 292.057 C 335.174 295.587,333.238 297.750,330.226 299.187 L 327.686 300.400 201.223 300.400 L 74.760 300.400 72.100 299.300 C 68.725 297.904,65.042 294.394,63.487 291.091 L 62.400 288.782 62.400 217.740 L 62.400 146.697 63.615 144.573 C 65.309 141.612,67.976 139.507,71.631 138.245 L 74.660 137.200 101.704 137.200 C 118.497 137.200,129.141 137.051,129.785 136.806 C 131.720 136.070,133.482 134.320,137.890 128.754 C 139.700 126.469,141.770 123.946,142.490 123.146 C 143.211 122.347,145.060 120.288,146.600 118.571 C 148.140 116.854,150.383 114.358,151.585 113.024 C 155.659 108.504,162.116 102.319,164.163 100.977 L 166.200 99.641 200.729 99.620 L 235.258 99.600 237.081 100.669 M195.200 148.408 C 193.770 148.605,191.160 148.965,189.400 149.207 C 187.640 149.449,185.660 149.815,185.000 150.020 C 184.340 150.225,182.630 150.667,181.200 151.002 C 179.770 151.337,178.060 151.858,177.400 152.161 C 176.740 152.464,175.120 153.163,173.800 153.713 C 170.215 155.209,169.477 155.546,168.600 156.089 C 168.160 156.361,166.900 157.124,165.800 157.784 C 164.700 158.443,163.590 159.184,163.334 159.429 C 163.078 159.674,162.313 160.105,161.634 160.386 C 160.955 160.667,160.400 161.053,160.400 161.243 C 160.400 161.433,159.650 162.085,158.733 162.692 C 153.200 166.353,140.400 182.196,140.400 185.382 C 140.400 185.577,140.150 186.021,139.844 186.369 C 139.538 186.716,138.550 189.129,137.649 191.730 C 136.747 194.332,135.879 196.672,135.720 196.930 C 135.560 197.188,135.297 198.389,135.135 199.600 C 134.973 200.810,134.567 203.240,134.234 205.000 C 133.576 208.474,133.404 220.423,133.966 223.600 C 134.966 229.248,135.427 231.119,137.078 236.200 C 139.435 243.459,141.532 247.448,147.084 255.232 C 148.014 256.535,150.850 259.816,152.704 261.733 C 154.022 263.096,159.798 267.973,161.200 268.907 C 161.750 269.274,163.010 270.151,164.000 270.857 C 168.753 274.245,177.289 277.837,185.400 279.862 C 190.250 281.073,208.473 281.512,212.200 280.507 C 214.097 279.996,220.891 278.129,222.600 277.651 C 223.260 277.466,225.545 276.479,227.677 275.457 C 229.810 274.436,231.636 273.600,231.736 273.600 C 232.039 273.600,239.304 268.745,240.800 267.543 C 246.603 262.881,248.404 260.988,254.912 252.716 C 255.381 252.120,256.043 251.103,256.382 250.456 C 256.722 249.809,257.879 247.714,258.954 245.800 C 260.029 243.886,261.437 240.853,262.082 239.060 C 262.728 237.267,263.515 235.080,263.832 234.200 C 265.504 229.561,266.485 222.357,266.474 214.800 C 266.463 207.555,266.397 206.958,264.659 198.400 C 264.437 197.306,262.597 191.879,262.015 190.600 C 261.814 190.160,261.539 189.402,261.403 188.916 C 261.197 188.177,259.236 184.391,256.400 179.254 C 256.070 178.657,255.035 177.169,254.100 175.948 C 253.165 174.726,252.400 173.611,252.400 173.468 C 252.400 173.086,242.513 163.200,242.128 163.198 C 241.948 163.197,241.193 162.628,240.452 161.933 C 239.710 161.238,237.460 159.701,235.452 158.518 C 233.443 157.335,231.530 156.193,231.200 155.981 C 230.870 155.768,230.150 155.390,229.600 155.141 C 229.050 154.891,227.682 154.262,226.560 153.743 C 225.438 153.225,224.358 152.799,224.160 152.798 C 223.962 152.796,223.279 152.523,222.643 152.192 C 218.106 149.826,201.505 147.537,195.200 148.408 M208.427 149.539 C 210.751 149.734,213.014 150.086,213.455 150.322 C 213.896 150.559,215.504 150.953,217.029 151.198 C 218.553 151.444,220.538 151.994,221.440 152.421 C 222.342 152.847,223.647 153.309,224.340 153.448 C 225.033 153.587,225.600 153.844,225.600 154.019 C 225.600 154.194,226.275 154.554,227.100 154.817 C 227.925 155.081,229.161 155.635,229.847 156.049 C 230.533 156.462,231.317 156.800,231.589 156.800 C 231.862 156.800,232.619 157.250,233.273 157.800 C 233.927 158.350,234.718 158.800,235.031 158.800 C 235.344 158.800,235.600 158.950,235.600 159.132 C 235.600 159.315,236.095 159.717,236.700 160.025 C 237.305 160.333,238.719 161.354,239.843 162.293 C 240.967 163.232,242.014 164.000,242.169 164.000 C 242.325 164.000,243.452 165.000,244.675 166.223 C 245.898 167.445,247.326 168.726,247.849 169.069 C 248.372 169.412,248.800 169.927,248.800 170.215 C 248.800 170.502,249.520 171.354,250.400 172.107 C 251.280 172.860,252.000 173.661,252.000 173.886 C 252.000 174.111,252.747 175.233,253.659 176.379 C 254.572 177.526,255.621 179.034,255.990 179.732 C 258.090 183.703,260.150 187.452,260.425 187.805 C 260.599 188.028,260.960 189.108,261.228 190.205 C 261.496 191.302,261.852 192.380,262.019 192.600 C 262.185 192.820,262.536 193.810,262.798 194.800 C 263.060 195.790,263.507 196.870,263.790 197.200 C 264.074 197.530,264.432 199.060,264.587 200.600 C 264.741 202.140,265.121 205.110,265.431 207.200 C 266.154 212.070,266.155 218.579,265.433 222.848 C 265.122 224.691,264.745 227.370,264.595 228.800 C 264.446 230.230,264.075 231.793,263.770 232.274 C 263.465 232.755,263.039 233.835,262.824 234.674 C 262.214 237.045,260.772 241.335,260.361 242.000 C 260.157 242.330,259.630 243.320,259.189 244.200 C 258.749 245.080,257.947 246.520,257.408 247.400 C 256.869 248.280,256.165 249.548,255.843 250.218 C 255.521 250.888,254.615 252.139,253.829 252.996 C 253.043 253.854,252.400 254.729,252.400 254.940 C 252.400 255.502,244.225 264.400,243.709 264.400 C 243.599 264.400,242.494 265.270,241.254 266.332 C 240.014 267.395,238.685 268.379,238.300 268.520 C 237.915 268.660,237.600 268.961,237.600 269.187 C 237.600 269.414,237.424 269.600,237.209 269.600 C 236.995 269.600,235.600 270.418,234.109 271.417 C 232.619 272.417,230.991 273.337,230.492 273.463 C 229.992 273.588,228.012 274.480,226.092 275.445 C 224.171 276.409,222.240 277.200,221.800 277.201 C 221.360 277.203,220.485 277.474,219.855 277.802 C 219.226 278.130,217.516 278.581,216.055 278.804 C 214.595 279.027,212.590 279.520,211.600 279.899 C 209.056 280.872,190.573 280.875,188.400 279.903 C 187.630 279.558,186.100 279.151,185.000 278.999 C 182.696 278.679,176.606 276.858,175.200 276.068 C 174.870 275.883,173.520 275.230,172.200 274.617 C 168.218 272.769,165.844 271.522,165.000 270.836 C 163.679 269.762,161.650 268.400,161.371 268.400 C 160.825 268.400,151.970 260.573,151.600 259.763 C 151.490 259.523,150.639 258.443,149.709 257.363 C 147.001 254.219,144.400 250.700,144.400 250.179 C 144.400 249.914,144.120 249.465,143.777 249.181 C 143.434 248.896,142.887 248.026,142.561 247.246 C 142.236 246.466,141.833 245.732,141.667 245.614 C 141.133 245.235,139.246 241.056,138.777 239.212 C 138.526 238.228,138.069 237.063,137.761 236.623 C 137.452 236.182,137.200 235.362,137.200 234.800 C 137.200 234.238,136.896 233.343,136.523 232.812 C 136.115 232.229,135.653 230.251,135.357 227.823 C 135.088 225.610,134.651 222.180,134.386 220.200 C 133.854 216.227,134.053 211.230,134.994 204.992 C 135.325 202.796,135.596 200.308,135.598 199.463 C 135.599 198.535,135.917 197.523,136.400 196.909 C 136.840 196.350,137.200 195.509,137.200 195.040 C 137.200 194.572,137.536 193.561,137.947 192.794 C 138.357 192.027,138.825 190.800,138.986 190.066 C 139.278 188.734,141.320 184.540,142.027 183.820 C 142.232 183.611,142.400 183.194,142.400 182.893 C 142.400 182.593,142.850 181.757,143.400 181.036 C 143.950 180.314,144.400 179.514,144.400 179.257 C 144.400 178.999,145.210 177.794,146.200 176.579 C 147.190 175.363,148.000 174.206,148.000 174.007 C 148.000 173.531,157.415 164.000,157.886 164.000 C 158.085 164.000,159.170 163.235,160.298 162.300 C 161.980 160.905,165.682 158.347,167.759 157.145 C 168.714 156.591,172.650 154.851,173.500 154.606 C 173.995 154.463,174.400 154.198,174.400 154.018 C 174.400 153.837,174.988 153.579,175.707 153.444 C 176.426 153.309,177.643 152.862,178.411 152.450 C 179.179 152.038,180.796 151.576,182.004 151.422 C 183.212 151.269,185.236 150.796,186.502 150.371 C 187.767 149.947,189.927 149.587,191.302 149.570 C 192.676 149.554,194.610 149.385,195.600 149.195 C 197.474 148.836,201.242 148.937,208.427 149.539 M276.080 150.880 C 275.391 151.569,275.409 162.632,276.100 163.068 C 276.745 163.475,287.291 163.234,287.742 162.802 C 288.331 162.240,288.274 151.998,287.677 151.146 C 287.037 150.232,276.959 150.001,276.080 150.880 M287.516 156.200 C 287.689 163.389,288.218 162.800,281.592 162.800 L 276.000 162.800 276.000 157.267 C 276.000 150.578,275.423 151.155,281.977 151.289 L 287.400 151.400 287.516 156.200 M193.871 160.048 C 191.931 160.235,189.539 160.660,188.557 160.994 C 187.575 161.327,186.283 161.601,185.686 161.603 C 185.089 161.604,184.060 161.963,183.400 162.400 C 182.740 162.837,181.852 163.196,181.426 163.197 C 180.042 163.202,173.693 166.271,172.103 167.704 C 171.716 168.053,170.900 168.462,170.289 168.615 C 169.679 168.767,168.997 169.231,168.775 169.646 C 168.553 170.061,168.117 170.400,167.806 170.400 C 167.494 170.400,167.096 170.629,166.920 170.910 C 166.744 171.190,166.060 171.751,165.400 172.157 C 164.128 172.940,159.347 177.693,157.497 180.015 C 154.722 183.497,154.400 183.933,154.400 184.200 C 154.400 184.356,153.950 185.019,153.400 185.673 C 152.850 186.327,152.400 187.096,152.400 187.382 C 152.400 187.668,152.135 188.122,151.811 188.391 C 151.486 188.660,151.109 189.481,150.971 190.214 C 150.833 190.948,150.379 191.857,149.960 192.236 C 149.542 192.614,149.200 193.214,149.200 193.568 C 149.200 193.922,148.842 194.880,148.405 195.696 C 147.967 196.512,147.489 198.219,147.342 199.490 C 147.194 200.760,146.700 202.520,146.243 203.400 C 144.967 205.856,144.990 223.659,146.272 226.400 C 146.735 227.390,147.212 229.116,147.331 230.235 C 147.542 232.221,148.102 233.703,150.492 238.600 C 151.757 241.192,152.019 241.667,153.696 244.400 C 157.329 250.322,167.125 259.988,171.236 261.706 C 171.986 262.020,172.847 262.574,173.149 262.938 C 173.451 263.302,174.014 263.600,174.400 263.600 C 174.786 263.600,175.310 263.850,175.563 264.156 C 175.817 264.461,176.874 264.925,177.912 265.186 C 178.950 265.447,180.070 265.897,180.400 266.186 C 180.730 266.475,181.630 266.839,182.400 266.995 C 183.170 267.151,184.177 267.516,184.637 267.807 C 188.591 270.305,211.455 270.313,215.332 267.818 C 215.809 267.511,216.869 267.137,217.686 266.988 C 218.503 266.838,219.370 266.477,219.613 266.184 C 219.856 265.891,220.628 265.538,221.328 265.399 C 222.995 265.069,227.600 262.854,227.600 262.383 C 227.600 262.181,228.068 261.898,228.640 261.754 C 230.474 261.294,240.400 253.069,240.400 252.009 C 240.400 251.809,240.771 251.385,241.225 251.068 C 241.679 250.750,242.618 249.705,243.312 248.745 C 244.006 247.785,244.671 246.910,244.790 246.800 C 245.458 246.178,247.215 243.557,247.755 242.375 C 248.101 241.619,248.542 240.730,248.736 240.400 C 248.930 240.070,249.542 238.810,250.096 237.600 C 250.651 236.390,251.405 234.762,251.771 233.982 C 252.138 233.202,252.594 231.492,252.786 230.182 C 252.977 228.872,253.464 227.170,253.867 226.400 C 254.935 224.360,254.980 205.273,253.921 203.400 C 253.548 202.740,253.043 200.956,252.798 199.435 C 252.554 197.914,252.094 196.299,251.777 195.846 C 251.460 195.393,251.200 194.737,251.200 194.389 C 251.200 194.040,250.750 193.145,250.200 192.400 C 249.650 191.655,249.200 190.703,249.200 190.285 C 249.200 189.868,248.840 189.069,248.400 188.509 C 247.960 187.950,247.600 187.271,247.600 187.001 C 247.600 186.564,247.086 185.821,244.496 182.509 C 244.113 182.020,243.440 181.132,243.000 180.537 C 241.449 178.439,236.181 173.092,234.640 172.053 C 233.782 171.474,232.813 170.820,232.487 170.600 C 232.160 170.380,231.476 169.795,230.965 169.300 C 230.454 168.805,229.725 168.400,229.344 168.400 C 228.963 168.400,228.279 168.050,227.823 167.622 C 226.697 166.563,221.130 163.733,219.511 163.395 C 218.790 163.245,217.480 162.803,216.600 162.413 C 211.605 160.200,202.321 159.234,193.871 160.048 M209.890 161.365 C 212.758 161.896,215.657 162.616,216.332 162.965 C 217.008 163.314,217.832 163.600,218.164 163.600 C 218.719 163.600,224.773 166.448,228.628 168.524 C 232.352 170.529,242.574 179.833,243.653 182.200 C 243.853 182.640,244.562 183.720,245.228 184.600 C 245.893 185.480,247.139 187.609,247.996 189.331 C 248.853 191.054,249.717 192.674,249.916 192.931 C 250.753 194.016,253.285 202.913,254.091 207.600 C 254.758 211.478,254.235 222.991,253.256 226.000 C 252.791 227.430,252.408 228.984,252.405 229.452 C 252.369 235.454,242.545 250.441,234.249 257.150 C 230.258 260.379,222.922 264.772,221.456 264.813 C 221.205 264.819,220.100 265.268,219.000 265.809 C 217.900 266.350,216.769 266.794,216.487 266.796 C 216.205 266.798,214.892 267.165,213.568 267.611 C 207.818 269.548,192.198 269.553,186.460 267.620 C 185.121 267.169,183.795 266.794,183.513 266.787 C 183.231 266.781,182.100 266.332,181.000 265.791 C 179.900 265.250,178.730 264.791,178.400 264.771 C 178.070 264.751,176.720 264.130,175.400 263.391 C 174.080 262.651,172.284 261.652,171.410 261.169 C 167.297 258.900,159.111 251.338,156.288 247.200 C 153.408 242.978,152.858 242.094,152.618 241.300 C 152.469 240.805,152.178 240.400,151.973 240.400 C 151.768 240.400,151.600 240.172,151.600 239.894 C 151.600 239.616,151.235 238.707,150.788 237.874 C 149.686 235.818,147.601 230.039,147.595 229.023 C 147.592 228.571,147.245 227.102,146.824 225.759 C 145.405 221.233,145.375 206.662,146.779 204.038 C 146.990 203.644,147.343 202.205,147.563 200.840 C 147.782 199.475,148.241 197.800,148.581 197.118 C 148.922 196.435,149.200 195.672,149.200 195.422 C 149.200 194.038,155.747 182.565,157.430 181.000 C 157.667 180.780,158.732 179.556,159.797 178.279 C 161.585 176.135,164.662 173.341,167.372 171.400 C 167.986 170.960,168.694 170.418,168.944 170.196 C 170.560 168.763,180.769 163.600,181.987 163.600 C 182.236 163.600,182.976 163.323,183.631 162.984 C 188.291 160.574,201.287 159.773,209.890 161.365 M191.727 191.520 C 190.147 192.114,188.713 192.744,188.541 192.919 C 188.369 193.095,187.457 193.580,186.514 193.997 C 185.571 194.414,184.800 194.922,184.800 195.126 C 184.800 195.330,184.169 195.925,183.399 196.448 C 182.129 197.310,177.600 203.366,177.600 204.202 C 177.600 204.392,177.201 205.369,176.714 206.374 C 174.141 211.675,175.549 222.939,179.521 228.820 C 182.346 233.003,189.524 238.393,192.283 238.402 C 192.677 238.404,193.540 238.709,194.200 239.080 C 197.238 240.790,205.835 239.805,210.719 237.187 C 211.527 236.754,212.346 236.400,212.539 236.400 C 214.117 236.400,222.400 227.483,222.400 225.785 C 222.400 225.602,222.805 224.631,223.300 223.626 C 224.129 221.943,224.200 221.251,224.200 214.800 C 224.200 208.306,224.135 207.678,223.300 206.116 C 222.805 205.190,222.400 204.243,222.400 204.012 C 222.400 203.782,221.905 202.896,221.300 202.044 C 220.695 201.192,219.930 200.074,219.600 199.560 C 217.673 196.560,213.229 193.417,208.000 191.355 C 204.738 190.069,195.336 190.164,191.727 191.520 M205.797 191.195 C 205.931 191.412,207.067 191.883,208.320 192.241 C 209.574 192.600,210.870 193.121,211.200 193.399 C 211.530 193.678,212.244 194.041,212.787 194.207 C 213.330 194.373,214.484 195.205,215.351 196.055 C 216.218 196.905,217.173 197.600,217.474 197.600 C 217.774 197.600,218.178 198.017,218.372 198.526 C 218.789 199.624,220.415 202.072,221.342 203.000 C 221.704 203.361,222.000 204.028,222.000 204.481 C 222.000 204.935,222.405 205.957,222.900 206.753 C 224.221 208.878,224.249 220.009,222.940 222.800 C 222.475 223.790,221.959 225.050,221.791 225.600 C 221.314 227.173,217.830 231.568,215.720 233.261 C 214.664 234.108,213.602 234.962,213.360 235.160 C 209.694 238.156,199.075 240.553,196.080 239.062 C 195.486 238.767,194.100 238.289,193.000 238.001 C 191.900 237.714,190.730 237.257,190.400 236.986 C 190.070 236.716,189.376 236.365,188.859 236.207 C 187.817 235.889,185.387 234.317,184.324 233.273 C 183.947 232.903,183.405 232.402,183.119 232.160 C 182.171 231.355,180.487 229.310,179.981 228.348 C 179.707 227.827,179.239 227.256,178.942 227.080 C 178.644 226.904,178.400 226.447,178.400 226.065 C 178.400 225.682,177.998 224.656,177.507 223.785 C 176.311 221.664,176.118 208.132,177.258 206.400 C 177.620 205.850,178.051 204.953,178.215 204.406 C 178.379 203.859,179.175 202.509,179.984 201.406 C 180.793 200.303,181.573 199.081,181.718 198.691 C 181.863 198.301,182.297 197.861,182.682 197.713 C 183.067 197.565,183.961 196.866,184.668 196.159 C 186.054 194.772,190.209 192.610,192.272 192.201 C 192.972 192.062,193.759 191.690,194.021 191.374 C 194.591 190.688,205.382 190.523,205.797 191.195 " stroke="none" fill="#747474" fill-rule="evenodd"></path><path id="path3" d="M161.000 87.791 C 159.900 88.332,158.873 88.781,158.718 88.787 C 156.408 88.890,143.909 101.125,130.400 116.509 C 129.850 117.136,128.635 118.433,127.700 119.392 C 126.765 120.352,126.000 121.265,126.000 121.421 C 126.000 121.578,125.351 122.318,124.558 123.066 L 123.115 124.426 118.858 124.313 L 114.600 124.200 114.400 118.520 C 114.139 111.102,115.561 111.824,100.917 111.678 C 84.923 111.519,86.015 110.991,86.005 118.886 C 85.999 124.722,86.483 124.399,77.726 124.402 C 72.854 124.404,70.714 124.554,69.963 124.946 C 69.392 125.244,68.282 125.608,67.495 125.756 C 63.381 126.528,53.200 134.022,53.200 136.279 C 53.200 136.480,52.759 137.242,52.221 137.972 C 51.682 138.701,51.119 139.859,50.968 140.543 C 50.818 141.228,50.404 142.233,50.048 142.776 C 49.301 143.915,48.824 281.877,49.542 289.000 C 49.902 292.570,51.086 296.476,52.391 298.400 C 52.764 298.950,53.183 299.715,53.322 300.100 C 53.461 300.485,53.761 300.800,53.987 300.800 C 54.214 300.800,54.400 301.031,54.400 301.312 C 54.400 302.006,59.548 307.332,61.021 308.162 C 61.669 308.528,63.050 309.353,64.088 309.995 C 65.127 310.637,66.747 311.369,67.688 311.621 C 68.630 311.872,69.653 312.286,69.961 312.539 C 71.025 313.412,331.494 313.178,333.000 312.302 C 333.660 311.919,334.428 311.604,334.706 311.602 C 337.312 311.590,345.376 304.282,347.260 300.226 C 347.471 299.772,347.985 298.770,348.403 298.000 C 348.820 297.230,349.170 296.276,349.181 295.880 C 349.191 295.484,349.515 294.584,349.900 293.880 C 350.560 292.674,350.600 288.283,350.600 217.782 C 350.600 147.201,350.560 142.904,349.900 141.896 C 349.515 141.309,349.195 140.507,349.188 140.114 C 349.177 139.440,347.523 136.303,345.834 133.756 C 343.608 130.397,336.696 125.627,334.000 125.589 C 333.450 125.581,332.651 125.310,332.224 124.987 C 331.559 124.485,327.642 124.400,305.063 124.400 L 278.678 124.400 276.439 122.046 C 275.208 120.752,273.120 118.479,271.800 116.995 C 270.480 115.512,268.648 113.466,267.728 112.449 C 266.809 111.432,265.672 110.150,265.203 109.600 C 256.283 99.150,244.460 88.412,241.863 88.403 C 241.458 88.401,240.669 88.040,240.109 87.600 C 239.108 86.813,238.489 86.800,201.046 86.804 L 163.000 86.807 161.000 87.791 M240.063 88.385 C 245.050 90.138,254.353 98.164,263.003 108.175 C 264.321 109.701,266.120 111.717,267.000 112.656 C 267.880 113.594,269.500 115.392,270.600 116.652 C 271.700 117.911,273.884 120.304,275.453 121.970 L 278.305 125.000 305.053 125.221 C 327.799 125.409,332.099 125.536,333.800 126.070 C 336.958 127.061,341.313 129.811,343.444 132.161 C 346.079 135.065,346.329 135.394,346.879 136.685 C 347.141 137.298,347.561 138.070,347.814 138.400 C 348.067 138.730,348.707 140.530,349.237 142.400 L 350.200 145.800 350.200 217.800 L 350.200 289.800 349.255 293.200 C 347.011 301.271,342.784 306.691,335.947 310.266 C 334.076 311.244,332.887 311.633,329.400 312.409 C 327.405 312.853,76.665 312.858,73.600 312.414 C 62.774 310.847,54.269 303.483,50.945 292.800 L 50.012 289.800 50.006 217.862 L 50.000 145.924 50.863 143.062 C 51.337 141.488,52.147 139.573,52.663 138.807 C 53.178 138.041,53.600 137.182,53.600 136.898 C 53.600 135.777,60.233 129.812,63.229 128.240 C 67.537 125.977,69.632 125.555,78.041 125.259 C 87.387 124.929,86.800 125.348,86.800 118.995 C 86.800 111.727,85.532 112.329,100.517 112.478 C 114.982 112.621,113.581 111.945,113.607 118.800 C 113.631 125.164,113.656 125.201,117.844 125.196 C 123.459 125.188,123.634 125.113,127.050 121.247 C 131.960 115.691,135.301 111.970,136.800 110.387 C 137.570 109.573,139.550 107.434,141.200 105.633 C 147.514 98.739,156.388 90.400,157.410 90.400 C 157.530 90.400,158.101 90.085,158.678 89.700 C 161.757 87.648,160.626 87.704,200.614 87.650 C 236.642 87.602,237.899 87.625,240.063 88.385 M163.695 101.549 C 160.806 103.639,153.964 110.451,148.722 116.456 C 148.215 117.037,146.605 118.837,145.146 120.456 C 143.686 122.075,141.976 124.025,141.346 124.789 C 140.715 125.554,139.930 126.461,139.600 126.807 C 139.270 127.152,138.640 127.940,138.200 128.558 C 136.075 131.542,133.034 134.993,131.691 135.944 L 130.200 137.000 102.200 137.200 L 74.200 137.400 71.419 138.383 C 69.182 139.173,68.163 139.839,66.212 141.783 C 62.002 145.978,62.396 138.098,62.398 218.150 L 62.400 288.100 63.466 290.550 C 64.692 293.367,68.206 297.257,70.380 298.203 C 71.161 298.543,72.340 299.131,73.000 299.511 C 74.980 300.648,326.149 300.775,328.569 299.640 C 329.466 299.219,330.599 298.757,331.086 298.615 C 332.213 298.284,335.109 295.030,335.903 293.200 C 336.237 292.430,336.711 291.368,336.955 290.839 C 337.276 290.146,337.400 269.783,337.400 217.639 L 337.400 145.400 336.259 143.488 C 334.333 140.260,331.754 138.542,327.400 137.586 C 326.520 137.393,313.760 137.227,299.044 137.217 C 268.304 137.197,270.529 137.472,266.895 133.253 C 264.333 130.278,256.311 121.089,254.039 118.527 C 253.027 117.387,251.570 115.691,250.800 114.758 C 246.494 109.542,238.905 101.606,238.209 101.591 C 237.984 101.586,237.350 101.230,236.800 100.800 C 235.825 100.037,234.930 100.018,200.800 100.022 L 165.800 100.026 163.695 101.549 M236.880 101.563 C 238.894 102.924,243.355 107.244,246.200 110.588 C 247.300 111.881,248.652 113.402,249.204 113.969 C 249.756 114.536,251.016 115.980,252.004 117.179 C 252.992 118.377,254.160 119.747,254.600 120.224 C 255.040 120.700,256.120 121.951,257.000 123.003 C 257.880 124.056,259.180 125.566,259.890 126.358 C 260.599 127.151,261.949 128.668,262.890 129.729 C 271.010 138.888,267.073 138.000,299.556 138.000 C 329.973 137.999,330.319 138.033,333.597 141.311 C 334.699 142.413,335.601 143.604,335.601 143.957 C 335.602 144.311,335.962 145.189,336.401 145.910 C 337.301 147.385,337.704 288.441,336.810 288.994 C 336.596 289.126,336.154 290.133,335.828 291.231 C 334.796 294.706,332.185 297.704,329.581 298.405 C 328.730 298.634,327.926 298.997,327.793 299.211 C 327.242 300.103,76.275 299.701,73.610 298.803 C 68.048 296.930,64.791 293.304,63.187 287.200 C 62.970 286.375,62.815 257.665,62.810 217.288 L 62.800 148.776 63.814 146.368 C 64.371 145.043,65.491 143.314,66.303 142.526 C 70.909 138.053,71.338 138.000,103.034 138.000 C 118.106 138.000,129.153 137.843,129.939 137.617 C 131.425 137.191,135.600 133.816,135.600 133.041 C 135.600 132.768,136.005 132.178,136.500 131.730 C 136.995 131.282,137.760 130.410,138.200 129.792 C 139.234 128.341,142.768 124.031,143.800 122.961 C 144.535 122.199,148.627 117.675,152.085 113.800 C 156.027 109.383,163.455 102.253,164.623 101.765 C 165.350 101.461,166.058 101.029,166.196 100.806 C 166.363 100.536,177.989 100.400,200.804 100.400 L 235.160 100.400 236.880 101.563 M192.383 147.553 C 190.943 147.717,189.575 147.969,189.341 148.113 C 189.108 148.257,187.586 148.576,185.959 148.822 C 184.331 149.068,182.487 149.519,181.860 149.824 C 181.233 150.129,180.063 150.494,179.260 150.634 C 178.457 150.774,177.250 151.202,176.577 151.585 C 175.905 151.968,174.708 152.403,173.917 152.552 C 173.127 152.700,172.275 153.069,172.024 153.371 C 171.773 153.674,171.080 154.043,170.484 154.190 C 169.888 154.338,169.040 154.782,168.600 155.177 C 168.160 155.572,167.318 156.009,166.728 156.148 C 166.138 156.287,165.411 156.626,165.111 156.901 C 164.508 157.453,163.588 158.075,161.837 159.111 C 161.198 159.490,160.312 160.146,159.869 160.568 C 159.426 160.991,158.059 162.144,156.832 163.130 C 154.839 164.732,153.648 165.902,148.574 171.247 C 147.818 172.042,147.200 172.887,147.200 173.124 C 147.200 173.361,146.882 173.790,146.493 174.077 C 145.799 174.591,144.674 176.079,143.715 177.753 C 143.448 178.219,143.038 178.870,142.805 179.200 C 140.605 182.313,136.400 191.086,136.400 192.564 C 136.400 192.929,136.144 193.627,135.831 194.114 C 135.518 194.601,135.050 196.170,134.791 197.600 C 134.532 199.030,134.075 200.920,133.776 201.800 C 132.406 205.832,132.439 225.089,133.822 228.200 C 134.115 228.860,134.477 230.300,134.625 231.400 C 134.773 232.500,135.213 234.210,135.602 235.200 C 135.991 236.190,136.517 237.765,136.770 238.700 C 137.024 239.635,137.389 240.400,137.581 240.400 C 137.773 240.400,138.051 241.119,138.200 241.998 C 138.348 242.877,138.649 243.707,138.868 243.842 C 139.087 243.977,139.609 244.833,140.028 245.744 C 140.447 246.655,141.017 247.749,141.295 248.177 C 141.573 248.604,142.385 249.864,143.099 250.977 C 147.073 257.166,149.682 260.183,156.400 266.362 C 160.569 270.196,171.909 276.933,175.701 277.827 C 176.306 277.970,177.470 278.428,178.286 278.844 C 179.102 279.260,180.063 279.600,180.422 279.600 C 180.781 279.600,182.138 279.966,183.437 280.413 C 187.891 281.946,200.116 282.535,209.487 281.669 C 213.942 281.257,217.494 280.395,222.308 278.557 C 223.687 278.031,225.150 277.600,225.559 277.600 C 225.968 277.600,226.518 277.339,226.783 277.020 C 227.048 276.702,227.925 276.228,228.732 275.968 C 229.539 275.708,230.427 275.315,230.705 275.095 C 231.294 274.627,233.288 273.514,235.000 272.697 C 235.660 272.382,236.447 271.826,236.749 271.462 C 237.051 271.098,237.448 270.800,237.631 270.800 C 238.020 270.800,242.932 267.173,244.159 265.979 C 244.622 265.529,245.990 264.214,247.200 263.056 C 250.790 259.620,254.800 254.847,254.800 254.011 C 254.800 253.800,255.160 253.435,255.600 253.200 C 256.040 252.965,256.403 252.553,256.407 252.286 C 256.414 251.867,258.135 249.008,259.107 247.800 C 259.285 247.580,259.678 246.770,259.981 246.000 C 260.284 245.230,260.758 244.330,261.035 244.000 C 261.311 243.670,261.672 242.860,261.837 242.200 C 262.001 241.540,262.464 240.460,262.866 239.800 C 263.268 239.140,263.598 238.308,263.599 237.951 C 263.599 237.594,263.955 236.500,264.388 235.519 C 264.822 234.539,265.300 232.671,265.451 231.368 C 265.602 230.066,265.953 228.640,266.233 228.200 C 267.808 225.719,267.757 204.687,266.168 201.439 C 265.856 200.800,265.600 199.844,265.600 199.316 C 265.600 197.897,264.755 194.717,264.138 193.811 C 263.842 193.377,263.600 192.724,263.600 192.359 C 263.600 191.425,261.624 187.029,258.297 180.566 C 257.910 179.815,257.415 179.200,257.197 179.200 C 256.979 179.200,256.800 178.955,256.800 178.655 C 256.800 178.150,255.292 175.942,253.825 174.300 C 253.481 173.915,253.200 173.435,253.200 173.232 C 253.200 172.801,243.534 162.799,243.117 162.800 C 242.962 162.800,242.062 162.082,241.117 161.205 C 240.173 160.328,239.189 159.608,238.931 159.605 C 238.673 159.602,237.927 159.150,237.273 158.600 C 236.619 158.050,235.885 157.600,235.642 157.600 C 235.399 157.600,235.200 157.435,235.200 157.233 C 235.200 157.031,234.390 156.557,233.400 156.179 C 232.410 155.801,231.600 155.350,231.600 155.177 C 231.600 155.004,230.925 154.645,230.100 154.380 C 229.275 154.116,228.330 153.666,228.000 153.381 C 227.670 153.096,226.860 152.735,226.200 152.580 C 225.540 152.424,224.460 151.983,223.800 151.600 C 223.140 151.216,221.869 150.792,220.977 150.658 C 220.084 150.525,218.824 150.157,218.177 149.842 C 217.529 149.527,215.708 149.074,214.128 148.835 C 212.548 148.597,210.748 148.208,210.128 147.972 C 208.743 147.446,195.976 147.144,192.383 147.553 M209.238 148.744 C 213.180 149.267,220.538 151.072,222.678 152.041 C 223.601 152.458,224.566 152.800,224.824 152.800 C 225.081 152.800,225.946 153.152,226.746 153.583 C 227.545 154.014,228.830 154.641,229.600 154.975 C 230.370 155.310,231.360 155.809,231.800 156.084 C 232.240 156.360,234.019 157.455,235.753 158.518 C 240.890 161.667,252.400 171.833,252.400 173.221 C 252.400 173.369,252.895 174.127,253.500 174.905 C 256.092 178.239,256.044 178.162,259.013 183.668 C 267.642 199.668,269.247 219.843,263.208 236.400 C 262.526 238.270,261.787 240.384,261.566 241.098 C 259.547 247.616,248.214 262.379,241.343 267.442 C 233.180 273.457,224.039 277.932,216.400 279.653 C 209.678 281.167,208.401 281.295,200.000 281.295 C 190.056 281.295,185.292 280.541,177.198 277.683 C 173.937 276.532,164.960 272.040,164.165 271.162 C 163.786 270.743,163.307 270.400,163.101 270.400 C 160.470 270.400,147.682 257.263,143.150 249.905 C 140.147 245.028,135.200 233.357,135.200 231.148 C 135.200 230.771,134.811 228.874,134.335 226.932 C 133.294 222.683,133.061 207.673,133.985 204.400 C 134.264 203.410,134.730 201.340,135.019 199.800 C 135.308 198.260,136.108 195.470,136.796 193.600 C 137.484 191.730,138.191 189.750,138.367 189.200 C 140.952 181.129,150.496 168.756,159.433 161.889 C 161.916 159.981,166.231 157.120,167.800 156.342 C 168.460 156.015,169.360 155.549,169.800 155.307 C 171.976 154.108,174.840 152.800,175.293 152.798 C 175.572 152.796,176.340 152.513,177.000 152.168 C 178.993 151.128,187.226 149.199,192.800 148.466 C 196.261 148.012,204.810 148.156,209.238 148.744 M275.462 149.931 C 274.493 151.002,274.467 163.387,275.433 163.757 C 276.952 164.340,287.888 164.017,288.422 163.373 C 289.608 161.945,289.387 151.044,288.148 149.805 C 287.164 148.821,276.369 148.929,275.462 149.931 M287.809 150.808 C 288.724 151.567,288.663 161.846,287.738 162.869 C 286.923 163.769,276.545 163.985,275.680 163.120 C 274.959 162.399,275.021 152.033,275.753 150.989 C 276.421 150.034,286.691 149.880,287.809 150.808 M196.400 160.632 C 195.850 160.729,193.510 161.099,191.200 161.453 C 185.434 162.338,173.864 166.454,172.800 167.998 C 172.690 168.158,171.970 168.609,171.200 169.001 C 167.748 170.757,158.984 178.761,156.563 182.368 C 156.034 183.156,155.152 184.470,154.602 185.290 C 153.193 187.387,151.200 191.131,151.200 191.678 C 151.200 191.930,150.948 192.421,150.640 192.769 C 149.984 193.509,147.908 199.633,147.240 202.800 C 146.984 204.010,146.584 205.900,146.349 207.000 C 145.725 209.925,146.116 223.303,146.892 225.600 C 147.227 226.590,147.685 228.300,147.910 229.400 C 148.506 232.314,150.546 237.556,152.036 240.000 C 152.237 240.330,152.563 240.969,152.761 241.420 C 152.958 241.872,153.723 243.102,154.460 244.155 C 155.197 245.208,156.075 246.487,156.412 246.997 C 159.107 251.084,165.814 257.379,170.992 260.680 C 173.363 262.191,178.582 264.800,179.234 264.800 C 179.485 264.800,180.346 265.136,181.146 265.548 C 189.800 269.996,209.643 270.011,219.044 265.576 C 219.948 265.149,220.897 264.800,221.154 264.800 C 221.637 264.800,225.948 262.611,228.400 261.121 C 229.668 260.351,233.017 257.930,234.933 256.400 C 237.754 254.147,242.649 248.739,244.482 245.850 C 245.198 244.722,245.991 243.583,246.245 243.318 C 247.678 241.822,251.923 231.822,252.408 228.800 C 252.567 227.810,253.023 225.830,253.423 224.400 C 254.456 220.704,254.454 208.960,253.421 205.200 C 253.028 203.770,252.556 201.790,252.372 200.800 C 250.334 189.813,239.821 175.560,228.800 168.840 C 219.694 163.288,203.942 159.297,196.400 160.632 M208.200 162.164 C 212.260 162.677,216.445 163.737,219.400 165.001 C 221.073 165.716,226.434 168.335,227.400 168.909 C 229.877 170.381,232.400 172.177,232.400 172.466 C 232.400 172.650,232.650 172.800,232.956 172.800 C 233.802 172.800,243.200 182.265,243.200 183.117 C 243.200 183.349,243.605 184.049,244.100 184.672 C 245.235 186.102,245.824 187.036,246.702 188.800 C 247.086 189.570,247.604 190.332,247.854 190.494 C 248.104 190.656,248.424 191.403,248.565 192.154 C 248.706 192.905,249.072 193.728,249.379 193.983 C 249.686 194.238,250.064 195.192,250.218 196.105 C 250.372 197.017,250.818 198.401,251.209 199.182 C 251.600 199.962,252.040 201.759,252.188 203.175 C 252.336 204.591,252.714 206.247,253.028 206.855 C 253.834 208.412,253.842 220.920,253.039 222.851 C 252.730 223.593,252.349 225.280,252.191 226.600 C 252.033 227.920,251.565 229.755,251.152 230.678 C 250.738 231.601,250.400 232.568,250.400 232.828 C 250.400 233.335,248.568 237.807,247.954 238.800 C 247.750 239.130,247.262 240.030,246.870 240.800 C 245.748 243.007,244.346 245.200,244.058 245.200 C 243.914 245.200,243.569 245.710,243.293 246.334 C 243.017 246.958,242.076 248.173,241.202 249.034 C 240.328 249.895,239.610 250.753,239.607 250.940 C 239.601 251.226,237.297 253.600,237.024 253.600 C 236.974 253.600,236.138 254.337,235.167 255.237 C 234.195 256.138,232.905 257.132,232.300 257.447 C 231.695 257.763,231.200 258.174,231.200 258.362 C 231.200 258.549,230.660 258.927,230.000 259.200 C 229.340 259.473,228.800 259.819,228.800 259.967 C 228.800 260.116,227.271 261.009,225.403 261.952 C 223.534 262.895,221.904 263.832,221.779 264.034 C 221.655 264.235,221.156 264.400,220.670 264.400 C 220.185 264.400,219.161 264.733,218.394 265.141 C 217.627 265.548,215.740 266.117,214.200 266.404 C 212.660 266.691,210.770 267.199,210.000 267.532 C 207.942 268.422,192.570 268.389,190.000 267.489 C 189.010 267.142,187.062 266.640,185.672 266.372 C 184.281 266.104,182.488 265.551,181.687 265.142 C 180.886 264.734,179.830 264.400,179.339 264.400 C 178.849 264.400,178.327 264.205,178.180 263.967 C 178.032 263.729,177.167 263.191,176.256 262.771 C 174.368 261.902,172.892 261.045,170.600 259.486 C 169.720 258.888,168.370 257.972,167.600 257.452 C 166.830 256.931,165.149 255.491,163.864 254.252 C 162.579 253.014,161.376 252.000,161.191 252.000 C 161.006 252.000,160.752 251.685,160.628 251.300 C 160.504 250.915,159.637 249.746,158.701 248.702 C 157.766 247.659,156.392 245.814,155.649 244.602 C 154.906 243.391,154.160 242.400,153.992 242.400 C 153.824 242.400,153.566 241.919,153.419 241.332 C 153.271 240.744,152.802 239.820,152.375 239.278 C 151.949 238.736,151.600 238.023,151.600 237.693 C 151.600 237.364,151.259 236.533,150.843 235.847 C 150.427 235.161,149.959 233.970,149.804 233.200 C 149.649 232.430,149.289 231.431,149.004 230.980 C 148.719 230.529,148.279 228.819,148.025 227.180 C 147.771 225.541,147.283 223.236,146.940 222.057 C 146.201 219.509,146.283 207.720,147.048 206.761 C 147.294 206.453,147.699 204.799,147.947 203.087 C 148.196 201.374,148.656 199.574,148.970 199.087 C 149.284 198.599,149.667 197.480,149.821 196.600 C 149.975 195.720,150.335 194.730,150.620 194.400 C 150.904 194.070,151.266 193.260,151.423 192.600 C 151.579 191.940,151.946 191.123,152.238 190.785 C 152.531 190.447,153.052 189.547,153.397 188.785 C 153.743 188.023,154.335 186.938,154.713 186.374 C 155.091 185.810,155.803 184.730,156.295 183.974 C 157.586 181.993,159.847 179.394,162.600 176.730 C 163.920 175.452,165.366 174.045,165.814 173.603 C 166.262 173.161,166.772 172.800,166.947 172.800 C 167.122 172.800,168.064 172.146,169.040 171.346 C 170.016 170.546,171.350 169.601,172.004 169.246 C 176.857 166.611,178.965 165.600,179.608 165.600 C 180.018 165.600,180.454 165.436,180.578 165.235 C 182.115 162.748,198.453 160.931,208.200 162.164 M192.600 190.176 C 189.013 191.346,185.157 193.509,183.361 195.359 C 182.591 196.152,181.786 196.800,181.571 196.800 C 181.356 196.800,181.009 197.250,180.800 197.800 C 180.591 198.350,180.253 198.800,180.049 198.800 C 179.653 198.800,178.409 200.686,176.885 203.600 C 173.752 209.590,173.585 218.962,176.500 225.200 C 178.870 230.272,183.621 235.614,187.028 237.038 C 187.753 237.340,188.450 237.757,188.577 237.963 C 188.705 238.170,189.392 238.464,190.105 238.618 C 190.817 238.772,192.068 239.236,192.884 239.649 C 196.365 241.411,206.410 240.599,210.800 238.200 C 211.350 237.900,212.551 237.298,213.470 236.863 C 215.263 236.013,221.200 230.263,221.200 229.376 C 221.200 229.081,221.445 228.696,221.745 228.520 C 224.454 226.929,227.144 212.038,225.199 209.400 C 225.037 209.180,224.782 208.323,224.633 207.495 C 224.237 205.298,222.036 201.102,219.997 198.658 C 218.154 196.450,214.522 193.200,213.898 193.200 C 213.659 193.200,213.178 192.942,212.830 192.627 C 209.894 189.970,197.743 188.497,192.600 190.176 M208.400 191.309 C 211.046 192.348,214.835 194.317,215.203 194.843 C 215.315 195.003,216.080 195.669,216.905 196.324 C 218.297 197.431,221.713 201.832,222.242 203.200 C 222.369 203.530,222.952 204.880,223.537 206.200 C 225.257 210.084,225.124 219.661,223.287 224.130 C 216.596 240.404,196.236 245.102,183.264 233.363 C 181.242 231.533,177.600 226.854,177.600 226.086 C 177.600 225.963,177.152 224.743,176.605 223.375 C 174.732 218.695,174.863 209.319,176.853 205.606 C 177.264 204.839,177.600 204.048,177.600 203.847 C 177.600 200.034,187.726 192.123,195.000 190.254 C 197.399 189.637,205.835 190.301,208.400 191.309 " stroke="none" fill="#9c9c9c" fill-rule="evenodd"></path><path id="path4" d="M155.970 91.500 L 155.000 92.600 156.200 91.600 C 156.860 91.050,157.475 90.555,157.567 90.500 C 157.658 90.445,157.555 90.400,157.336 90.400 C 157.118 90.400,156.503 90.895,155.970 91.500 M252.400 97.310 C 252.400 97.371,253.795 98.766,255.500 100.410 L 258.600 103.400 255.610 100.300 C 252.833 97.421,252.400 97.017,252.400 97.310 M183.300 99.900 C 192.925 99.960,208.675 99.960,218.300 99.900 C 227.925 99.840,220.050 99.791,200.800 99.791 C 181.550 99.791,173.675 99.840,183.300 99.900 M246.600 110.000 C 247.459 110.880,248.252 111.600,248.362 111.600 C 248.472 111.600,247.859 110.880,247.000 110.000 C 246.141 109.120,245.348 108.400,245.238 108.400 C 245.128 108.400,245.741 109.120,246.600 110.000 M93.925 112.699 C 97.293 112.766,102.693 112.766,105.925 112.699 C 109.156 112.632,106.400 112.577,99.800 112.577 C 93.200 112.577,90.556 112.632,93.925 112.699 M86.948 119.600 C 86.948 121.910,87.014 122.855,87.095 121.700 C 87.176 120.545,87.176 118.655,87.095 117.500 C 87.014 116.345,86.948 117.290,86.948 119.600 M275.787 122.700 C 277.290 124.274,278.476 125.183,278.987 125.154 C 279.789 125.108,279.789 125.105,279.000 124.918 C 278.560 124.814,277.120 123.709,275.800 122.464 L 273.400 120.200 275.787 122.700 M328.305 125.483 C 328.802 125.579,329.522 125.575,329.905 125.475 C 330.287 125.375,329.880 125.296,329.000 125.301 C 328.120 125.305,327.807 125.387,328.305 125.483 M56.581 133.300 L 55.000 135.000 56.700 133.419 C 58.281 131.948,58.584 131.600,58.281 131.600 C 58.216 131.600,57.451 132.365,56.581 133.300 M333.200 139.725 C 333.200 139.794,333.785 140.379,334.500 141.025 L 335.800 142.200 334.625 140.900 C 333.530 139.688,333.200 139.416,333.200 139.725 M65.375 142.100 L 64.200 143.400 65.500 142.225 C 66.712 141.130,66.984 140.800,66.675 140.800 C 66.606 140.800,66.021 141.385,65.375 142.100 M62.865 145.817 C 62.609 146.378,62.407 147.054,62.416 147.319 C 62.424 147.583,62.697 147.188,63.022 146.439 C 63.705 144.865,63.561 144.290,62.865 145.817 M350.196 217.800 C 350.196 256.300,350.243 271.991,350.300 252.668 C 350.357 233.346,350.357 201.846,350.300 182.668 C 350.243 163.491,350.196 179.300,350.196 217.800 M275.288 157.051 C 275.211 162.022,275.284 162.768,275.900 163.251 C 276.517 163.735,276.542 163.725,276.112 163.173 C 275.796 162.768,275.580 160.574,275.500 156.973 L 275.375 151.400 275.288 157.051 M173.500 153.429 C 171.949 154.270,172.125 154.561,173.700 153.759 C 175.208 152.993,175.475 152.794,174.967 152.816 C 174.765 152.825,174.105 153.101,173.500 153.429 M225.200 152.979 C 225.200 153.089,225.740 153.459,226.400 153.800 C 227.060 154.141,227.600 154.331,227.600 154.221 C 227.600 154.111,227.060 153.741,226.400 153.400 C 225.740 153.059,225.200 152.869,225.200 152.979 M288.137 156.600 C 288.139 158.360,288.209 159.030,288.293 158.089 C 288.378 157.149,288.377 155.709,288.291 154.889 C 288.205 154.070,288.136 154.840,288.137 156.600 M195.105 160.683 C 195.602 160.779,196.322 160.775,196.705 160.675 C 197.087 160.575,196.680 160.496,195.800 160.501 C 194.920 160.505,194.607 160.587,195.105 160.683 M203.505 160.683 C 204.002 160.779,204.722 160.775,205.105 160.675 C 205.487 160.575,205.080 160.496,204.200 160.501 C 203.320 160.505,203.007 160.587,203.505 160.683 M280.316 163.497 C 281.699 163.575,283.859 163.574,285.116 163.495 C 286.372 163.416,285.240 163.352,282.600 163.353 C 279.960 163.353,278.932 163.418,280.316 163.497 M229.200 168.911 C 229.200 168.987,229.785 169.478,230.500 170.001 C 231.304 170.590,231.584 170.687,231.233 170.255 C 230.700 169.599,229.200 168.607,229.200 168.911 M237.000 175.200 C 237.859 176.080,238.652 176.800,238.762 176.800 C 238.872 176.800,238.259 176.080,237.400 175.200 C 236.541 174.320,235.748 173.600,235.638 173.600 C 235.528 173.600,236.141 174.320,237.000 175.200 M161.600 176.200 C 160.628 177.190,159.923 178.000,160.033 178.000 C 160.143 178.000,161.028 177.190,162.000 176.200 C 162.972 175.210,163.677 174.400,163.567 174.400 C 163.457 174.400,162.572 175.210,161.600 176.200 M197.700 190.296 C 198.965 190.375,201.035 190.375,202.300 190.296 C 203.565 190.216,202.530 190.151,200.000 190.151 C 197.470 190.151,196.435 190.216,197.700 190.296 M133.693 206.400 C 133.693 207.170,133.775 207.485,133.876 207.100 C 133.976 206.715,133.976 206.085,133.876 205.700 C 133.775 205.315,133.693 205.630,133.693 206.400 M254.109 210.000 C 254.109 210.990,254.187 211.395,254.282 210.900 C 254.378 210.405,254.378 209.595,254.282 209.100 C 254.187 208.605,254.109 209.010,254.109 210.000 M266.520 211.600 C 266.520 212.810,266.595 213.305,266.687 212.700 C 266.778 212.095,266.778 211.105,266.687 210.500 C 266.595 209.895,266.520 210.390,266.520 211.600 M224.550 214.600 C 224.551 217.020,224.616 217.958,224.696 216.685 C 224.776 215.412,224.775 213.432,224.694 212.285 C 224.614 211.138,224.549 212.180,224.550 214.600 M145.748 214.800 C 145.748 217.110,145.814 218.055,145.895 216.900 C 145.976 215.745,145.976 213.855,145.895 212.700 C 145.814 211.545,145.748 212.490,145.748 214.800 M133.346 215.000 C 133.347 217.200,133.414 218.049,133.495 216.887 C 133.576 215.724,133.576 213.924,133.493 212.887 C 133.411 211.849,133.345 212.800,133.346 215.000 M175.342 214.600 C 175.341 216.580,175.408 217.440,175.492 216.512 C 175.576 215.584,175.577 213.964,175.495 212.912 C 175.412 211.860,175.343 212.620,175.342 214.600 M266.520 218.800 C 266.520 220.010,266.595 220.505,266.687 219.900 C 266.778 219.295,266.778 218.305,266.687 217.700 C 266.595 217.095,266.520 217.590,266.520 218.800 M254.101 219.800 C 254.105 220.680,254.187 220.993,254.283 220.495 C 254.379 219.998,254.375 219.278,254.275 218.895 C 254.175 218.513,254.096 218.920,254.101 219.800 M162.383 254.100 C 164.041 255.866,164.400 256.184,164.400 255.883 C 164.400 255.819,163.545 254.964,162.500 253.983 L 160.600 252.200 162.383 254.100 M246.378 262.700 L 245.000 264.200 246.500 262.822 C 247.896 261.538,248.184 261.200,247.878 261.200 C 247.812 261.200,247.137 261.875,246.378 262.700 M198.115 269.096 C 199.388 269.176,201.368 269.175,202.515 269.094 C 203.662 269.014,202.620 268.949,200.200 268.950 C 197.780 268.951,196.842 269.016,198.115 269.096 M191.100 281.082 C 191.595 281.178,192.405 281.178,192.900 281.082 C 193.395 280.987,192.990 280.909,192.000 280.909 C 191.010 280.909,190.605 280.987,191.100 281.082 M207.100 281.082 C 207.595 281.178,208.405 281.178,208.900 281.082 C 209.395 280.987,208.990 280.909,208.000 280.909 C 207.010 280.909,206.605 280.987,207.100 281.082 M197.900 281.495 C 199.055 281.576,200.945 281.576,202.100 281.495 C 203.255 281.414,202.310 281.348,200.000 281.348 C 197.690 281.348,196.745 281.414,197.900 281.495 M66.783 295.700 C 67.764 296.745,68.619 297.600,68.683 297.600 C 68.984 297.600,68.666 297.241,66.900 295.583 L 65.000 293.800 66.783 295.700 M332.975 297.300 L 331.800 298.600 333.100 297.425 C 333.815 296.779,334.400 296.194,334.400 296.125 C 334.400 295.816,334.070 296.088,332.975 297.300 M138.532 312.700 C 173.475 312.756,230.535 312.756,265.332 312.700 C 300.130 312.644,271.540 312.598,201.800 312.598 C 132.060 312.598,103.590 312.644,138.532 312.700 " stroke="none" fill="#7c7c7c" fill-rule="evenodd"></path></g></svg>